<?xml version="1.0" encoding="UTF-8" standalone="no"?>
<!DOCTYPE svg PUBLIC "-//W3C//DTD SVG 1.1//EN" "http://www.w3.org/Graphics/SVG/1.1/DTD/svg11.dtd">
<svg width="100%" height="100%" viewBox="0 0 550 548" version="1.1" xmlns="http://www.w3.org/2000/svg" xmlns:xlink="http://www.w3.org/1999/xlink" xml:space="preserve" xmlns:serif="http://www.serif.com/" style="fill-rule:evenodd;clip-rule:evenodd;stroke-linejoin:round;stroke-miterlimit:2;">
    <g transform="matrix(0.707107,-0.5,0.707107,0.5,-28.129985,338.36796)">
        <path d="M217.482,148.992C217.482,145.966 218.734,144.22 220.865,144.22C222.613,144.22 223.785,145.5 223.91,147.234L226.853,147.234L226.853,146.935C226.717,143.706 224.225,141.493 220.842,141.493C216.726,141.493 214.381,144.351 214.381,148.98L214.381,151.013C214.381,155.642 216.704,158.441 220.842,158.441C224.214,158.441 226.706,156.288 226.853,153.166L226.853,152.855L223.91,152.855C223.785,154.53 222.635,155.714 220.865,155.714C218.711,155.714 217.482,154.027 217.482,151.013L217.482,148.992Z" style="fill:white;fill-rule:nonzero;"/>
        <rect x="229.444" y="141.804" width="3.045" height="16.326" style="fill:white;fill-rule:nonzero;"/>
        <path d="M241.913,141.804L235.768,141.804L235.768,158.13L238.779,158.13L238.779,152.042L241.507,152.042L244.202,158.13L247.608,158.13L244.518,151.552C245.917,150.978 247.315,149.363 247.315,146.971C247.315,143.849 245.33,141.804 241.913,141.804ZM238.779,149.614L238.779,144.339L241.474,144.339C243.086,144.339 244.169,145.284 244.169,147.031C244.169,148.753 243.12,149.614 241.429,149.614L238.779,149.614Z" style="fill:white;fill-rule:nonzero;"/>
        <path d="M252.466,148.992C252.466,145.966 253.717,144.22 255.849,144.22C257.597,144.22 258.769,145.5 258.893,147.234L261.836,147.234L261.836,146.935C261.701,143.706 259.209,141.493 255.826,141.493C251.71,141.493 249.365,144.351 249.365,148.98L249.365,151.013C249.365,155.642 251.688,158.441 255.826,158.441C259.198,158.441 261.69,156.288 261.836,153.166L261.836,152.855L258.893,152.855C258.769,154.53 257.619,155.714 255.849,155.714C253.695,155.714 252.466,154.027 252.466,151.013L252.466,148.992Z" style="fill:white;fill-rule:nonzero;"/>
        <path d="M270.472,155.69C268.566,155.69 267.303,154.458 267.303,152.186L267.303,141.804L264.247,141.804L264.247,152.496C264.247,156.073 266.683,158.441 270.472,158.441C274.25,158.441 276.685,156.073 276.685,152.496L276.685,141.804L273.629,141.804L273.629,152.186C273.629,154.434 272.366,155.69 270.472,155.69Z" style="fill:white;fill-rule:nonzero;"/>
        <rect x="279.784" y="141.804" width="3.045" height="16.326" style="fill:white;fill-rule:nonzero;"/>
        <path d="M292.073,158.13L292.073,144.507L296.448,144.507L296.448,141.804L284.653,141.804L284.653,144.507L289.017,144.507L289.017,158.13L292.073,158.13Z" style="fill:white;fill-rule:nonzero;"/>
        <path d="M308.972,141.804L302.815,141.804L302.815,158.13L305.859,158.13L305.859,152.652L308.949,152.652C312.276,152.652 314.17,150.32 314.17,147.246C314.17,144.196 312.298,141.804 308.972,141.804ZM311.069,147.246C311.069,149.064 310.066,150.116 308.385,150.116L305.848,150.116L305.848,144.375L308.385,144.375C310.066,144.375 311.069,145.416 311.069,147.246Z" style="fill:white;fill-rule:nonzero;"/>
        <path d="M322.479,141.804L316.333,141.804L316.333,158.13L319.344,158.13L319.344,152.042L322.073,152.042L324.768,158.13L328.173,158.13L325.083,151.552C326.482,150.978 327.88,149.363 327.88,146.971C327.88,143.849 325.895,141.804 322.479,141.804ZM319.344,149.614L319.344,144.339L322.039,144.339C323.651,144.339 324.734,145.284 324.734,147.031C324.734,148.753 323.685,149.614 321.994,149.614L319.344,149.614Z" style="fill:white;fill-rule:nonzero;"/>
        <path d="M343.112,151.025L343.112,148.932C343.112,144.316 340.643,141.493 336.527,141.493C332.411,141.493 329.93,144.292 329.93,148.932L329.93,151.025C329.93,155.63 332.411,158.441 336.527,158.441C340.643,158.441 343.112,155.63 343.112,151.025ZM340.022,148.908L340.022,151.037C340.022,154.183 338.556,155.75 336.527,155.75C334.486,155.75 333.031,154.183 333.031,151.037L333.031,148.908C333.031,145.763 334.486,144.184 336.527,144.184C338.556,144.184 340.022,145.763 340.022,148.908Z" style="fill:white;fill-rule:nonzero;"/>
    </g>
</svg>
